<svg width="23" height="23" viewBox="0 0 23 23" fill="none" xmlns="http://www.w3.org/2000/svg">
<g opacity="0.2">
<path d="M3.7885 7.43482C3.32488 6.97591 3.33978 6.22778 3.7885 5.77317L4.25486 5.3029L5.65786 3.8999C5.68686 3.87286 5.71782 3.83915 5.75191 3.82152C5.97702 3.63739 6.2625 3.54345 6.55296 3.55794C6.84342 3.57242 7.11814 3.69429 7.32382 3.8999L9.1775 5.75358C9.32172 5.89937 9.80062 6.38062 9.93817 6.51778C10.1431 6.72359 10.2648 6.99779 10.2799 7.2878C10.2951 7.5778 10.2027 7.86321 10.0205 8.08929C9.9754 8.14338 9.53256 8.59014 9.47181 8.64971L8.53909 9.58282L8.06882 10.0531C7.63381 10.5085 6.84139 10.5089 6.40678 10.0531L3.7885 7.43482ZM3.15363 5.29858C2.91967 5.02267 2.79789 4.66894 2.81241 4.30748C2.82693 3.94602 2.97668 3.6032 3.232 3.34693C3.75323 2.8257 4.63108 2.79827 5.18758 3.26463C5.16015 3.29206 5.12879 3.3195 5.10528 3.34693L3.15363 5.29858ZM10.0244 9.20268C10.0812 9.13331 10.5299 8.70654 10.577 8.64618L21.6458 19.7107C22.2066 20.2527 22.2073 21.2152 21.6458 21.7568C21.1034 22.3176 20.142 22.3183 19.6 21.7568L8.53518 10.6919C8.57045 10.6605 8.59788 10.6331 8.6214 10.6057L10.0244 9.20268ZM1.1471 13.2631C1.75968 11.5409 2.61053 9.9129 3.67485 8.42672L5.68921 10.4411C3.77361 12.7157 2.15036 15.2583 0.864546 17.9314C0.797922 18.0725 0.660759 18.1548 0.511837 18.1548C0.286104 18.158 0.0921135 17.9518 0.123857 17.7198C0.288824 16.1993 0.632528 14.7034 1.1471 13.2631ZM17.8165 0.975944C15.1297 2.26568 12.6147 3.88634 10.3301 5.80021C9.93935 5.4044 8.72721 4.19578 8.31571 3.78586C11.0584 1.82942 14.2561 0.607136 17.6045 0.235256C18.0317 0.179998 18.2123 0.793711 17.8165 0.975944Z" fill="white"/>
</g>
</svg>
