<svg width="29" height="22" viewBox="0 0 29 22" fill="none" xmlns="http://www.w3.org/2000/svg">
<g opacity="0.2">
<path fill-rule="evenodd" clip-rule="evenodd" d="M10.2772 18.6313C9.59616 18.1073 9.1911 17.4804 9.1911 16.7547V12.8984C9.19541 12.8683 9.20226 12.8386 9.21158 12.8096C9.20095 12.7602 9.19411 12.71 9.1911 12.6595C9.1911 10.1273 13.9962 8.80316 18.7466 8.80316C23.497 8.80316 28.3021 10.1273 28.3021 12.6595C28.2991 12.71 28.2922 12.7602 28.2816 12.8096C28.2909 12.8386 28.2978 12.8683 28.3021 12.8984V16.7547C28.2991 17.0179 28.2434 17.2778 28.1383 17.5191C28.1415 17.5211 28.1448 17.5231 28.148 17.5251C26.5837 19.6564 23.4955 21.0888 19.0879 21.0888C15.4954 21.0888 12.3746 20.1373 10.2772 18.6313ZM19.4291 16.5022C21.0407 16.4732 22.6437 16.2602 24.2069 15.8674V18.5429C22.6369 18.9787 21.0174 19.2104 19.3882 19.2323C19.4122 19.1713 19.4261 19.1067 19.4291 19.0412V16.5022ZM18.105 19.2323C16.4758 19.2104 14.8563 18.9787 13.2863 18.5429V15.8674C14.8495 16.2602 16.4525 16.4732 18.0641 16.5022V19.0412C18.0671 19.1067 18.081 19.1713 18.105 19.2323ZM25.5378 15.4442C26.0283 15.2612 26.4974 15.0255 26.937 14.7412V16.7547C26.937 17.1506 26.4524 17.6147 25.5719 18.031V15.6285C25.5672 15.566 25.5558 15.5043 25.5378 15.4442ZM11.9212 18.031C11.0408 17.6147 10.5562 17.1506 10.5562 16.7547V14.7412C10.9958 15.0255 11.4649 15.2612 11.9554 15.4442C11.9374 15.5043 11.926 15.566 11.9212 15.6285V18.031Z" fill="white"/>
<path fill-rule="evenodd" clip-rule="evenodd" d="M2.10952 10.4416C2.11117 10.4374 2.11283 10.4331 2.1145 10.4288L2.15546 10.3674C1.20673 9.78725 0.619751 9.05693 0.619751 8.18329V4.32696C0.624059 4.29686 0.630909 4.26718 0.640228 4.23823C0.629601 4.18877 0.622755 4.13858 0.619751 4.08808C0.619751 1.55587 5.4248 0.23175 10.1752 0.23175C14.9257 0.23175 19.7307 1.55587 19.7307 4.08808C19.7277 4.13858 19.7209 4.18877 19.7103 4.23823C19.7196 4.26718 19.7264 4.29686 19.7307 4.32696V8.18329C19.7277 8.44648 19.672 8.70641 19.5669 8.94773C19.8521 9.12383 20.0868 9.30278 20.2791 9.48092C18.1165 11.3179 14.55 12.5174 10.5165 12.5174C7.23793 12.5174 4.26788 11.7249 2.10952 10.4416ZM10.8578 7.93075C12.4693 7.90176 14.0723 7.6888 15.6355 7.29599V9.97153C14.0656 10.4073 12.446 10.639 10.8168 10.6609C10.8409 10.5999 10.8547 10.5353 10.8578 10.4698V7.93075ZM9.53366 10.6609C7.90449 10.639 6.28492 10.4073 4.71496 9.97153V7.29599C6.27818 7.6888 7.88115 7.90176 9.49271 7.93075V10.4698C9.49577 10.5353 9.50961 10.5999 9.53366 10.6609ZM16.9665 6.87282C17.4569 6.68979 17.9261 6.45408 18.3657 6.16981V8.18329C18.3657 8.57916 17.8811 9.04328 17.0006 9.45963V7.0571C16.9959 6.99463 16.9844 6.93285 16.9665 6.87282ZM3.34989 9.45963C2.46942 9.04328 1.98482 8.57916 1.98482 8.18329V6.16981C2.42441 6.45408 2.89356 6.68979 3.38402 6.87282C3.36608 6.93285 3.35464 6.99463 3.34989 7.0571V9.45963Z" fill="white"/>
</g>
</svg>
