<svg width="34" height="18" viewBox="0 0 34 18" fill="none" xmlns="http://www.w3.org/2000/svg">
<g opacity="0.2">
<path d="M5.62469 8.1198C7.16976 8.1198 8.42229 6.86727 8.42229 5.3222C8.42229 3.77713 7.16976 2.5246 5.62469 2.5246C4.07962 2.5246 2.82709 3.77713 2.82709 5.3222C2.82709 6.86727 4.07962 8.1198 5.62469 8.1198Z" fill="white"/>
<path d="M9.35948 10.0781C8.63349 10.6247 8.04453 11.3325 7.63911 12.1458C7.2337 12.959 7.02294 13.8554 7.02348 14.7641V15.1138H1.07858C0.505072 15.1138 0.02948 14.6382 0.02948 14.0647V13.3653C0.02948 11.2391 1.75 9.51862 3.87618 9.51862H7.37318C8.10056 9.51862 8.78597 9.72844 9.35948 10.0781Z" fill="white"/>
<path d="M28.0055 8.1198C29.5506 8.1198 30.8031 6.86727 30.8031 5.3222C30.8031 3.77713 29.5506 2.5246 28.0055 2.5246C26.4604 2.5246 25.2079 3.77713 25.2079 5.3222C25.2079 6.86727 26.4604 8.1198 28.0055 8.1198Z" fill="white"/>
<path d="M33.6007 13.3653V14.0647C33.6007 14.6382 33.1251 15.1138 32.5516 15.1138H26.6067V14.7641C26.6067 12.8478 25.6835 11.1412 24.2707 10.0781C24.8442 9.72844 25.5296 9.51862 26.257 9.51862H29.754C31.8802 9.51862 33.6007 11.2391 33.6007 13.3653Z" fill="white"/>
<path d="M16.8151 8.81919C19.1327 8.81919 21.0115 6.9404 21.0115 4.62279C21.0115 2.30518 19.1327 0.426392 16.8151 0.426392C14.4974 0.426392 12.6187 2.30518 12.6187 4.62279C12.6187 6.9404 14.4974 8.81919 16.8151 8.81919Z" fill="white"/>
<path d="M20.6618 10.9174H12.9684C11.9484 10.9182 10.9704 11.3237 10.2492 12.0449C9.52796 12.7661 9.12245 13.7441 9.1217 14.7641V16.8623C9.1217 17.4414 9.5917 17.9114 10.1708 17.9114H23.4594C23.7376 17.9114 24.0045 17.8009 24.2012 17.6041C24.398 17.4074 24.5085 17.1406 24.5085 16.8623V14.7641C24.5078 13.7441 24.1023 12.7661 23.381 12.0449C22.6598 11.3237 21.6818 10.9182 20.6618 10.9174Z" fill="white"/>
</g>
</svg>
