<svg width="16" height="16" viewBox="0 0 16 16" fill="none" xmlns="http://www.w3.org/2000/svg">
<path d="M7.6947 0.687576C6.21134 0.687576 4.7613 1.12744 3.52793 1.95155C2.29456 2.77566 1.33327 3.947 0.765609 5.31745C0.197952 6.68789 0.0494268 8.19589 0.338816 9.65075C0.628205 11.1056 1.34251 12.442 2.3914 13.4909C3.4403 14.5398 4.77667 15.2541 6.23153 15.5435C7.68638 15.8329 9.19438 15.6843 10.5648 15.1167C11.9353 14.549 13.1066 13.5877 13.9307 12.3544C14.7548 11.121 15.1947 9.67093 15.1947 8.18757C15.1926 6.1991 14.4018 4.29266 12.9957 2.88659C11.5896 1.48053 9.68318 0.689676 7.6947 0.687576ZM7.40624 4.14911C7.5774 4.14911 7.74471 4.19987 7.88702 4.29496C8.02934 4.39005 8.14025 4.5252 8.20575 4.68333C8.27125 4.84146 8.28839 5.01546 8.255 5.18333C8.22161 5.35119 8.13919 5.50539 8.01816 5.62642C7.89713 5.74744 7.74294 5.82986 7.57507 5.86326C7.4072 5.89665 7.2332 5.87951 7.07507 5.81401C6.91695 5.74851 6.78179 5.63759 6.6867 5.49528C6.59161 5.35297 6.54086 5.18566 6.54086 5.0145C6.54086 4.78498 6.63203 4.56487 6.79432 4.40258C6.95661 4.24029 7.17673 4.14911 7.40624 4.14911ZM8.27163 12.226C7.96561 12.226 7.67212 12.1045 7.45573 11.8881C7.23935 11.6717 7.11778 11.3782 7.11778 11.0722V8.18757C6.96477 8.18757 6.81803 8.12679 6.70984 8.0186C6.60164 7.9104 6.54086 7.76366 6.54086 7.61065C6.54086 7.45764 6.60164 7.3109 6.70984 7.20271C6.81803 7.09451 6.96477 7.03373 7.11778 7.03373C7.4238 7.03373 7.71728 7.15529 7.93367 7.37168C8.15006 7.58807 8.27163 7.88156 8.27163 8.18757V11.0722C8.42464 11.0722 8.57138 11.133 8.67957 11.2412C8.78777 11.3494 8.84855 11.4961 8.84855 11.6491C8.84855 11.8021 8.78777 11.9489 8.67957 12.0571C8.57138 12.1653 8.42464 12.226 8.27163 12.226Z" fill="white" fill-opacity="0.2"/>
</svg>
