<svg width="58" height="58" viewBox="0 0 58 58" fill="none" xmlns="http://www.w3.org/2000/svg">
<circle cx="29.0769" cy="34.8886" r="21" fill="#F9E160"/>
<g filter="url(#filter0_i_1_409)">
<circle cx="29.0769" cy="34.8886" r="17.4407" fill="#FE881C" fill-opacity="0.72"/>
</g>
<g filter="url(#filter1_d_1_409)">
<path d="M28.2715 46.6344V44.2724C25.7318 44.08 23.746 43.1702 22.3142 41.5431L23.9761 39.1811C25.1522 40.4758 26.5841 41.2544 28.2715 41.5168V36.4518C27.4704 36.2418 26.8056 36.0406 26.2772 35.8481C25.7488 35.6382 25.1949 35.3495 24.6153 34.9821C24.0358 34.5972 23.5926 34.1073 23.2858 33.5124C22.996 32.9001 22.8511 32.1828 22.8511 31.3604C22.8511 30.0133 23.3454 28.8673 24.3341 27.9225C25.3227 26.9777 26.6352 26.4353 28.2715 26.2954V23.8547H30.317V26.3216C32.3794 26.5491 34.0925 27.3364 35.4561 28.6836L33.7431 30.9668C32.8056 30.022 31.6635 29.4097 30.317 29.1297V33.6437C30.9476 33.8186 31.4846 33.9848 31.9277 34.1423C32.3709 34.2998 32.8567 34.5272 33.3851 34.8246C33.9306 35.1046 34.3652 35.4195 34.6891 35.7694C35.0129 36.1018 35.2857 36.5392 35.5072 37.0816C35.7288 37.624 35.8396 38.2363 35.8396 38.9187C35.8396 40.3533 35.3709 41.5693 34.4334 42.5666C33.513 43.5463 32.1408 44.115 30.317 44.2724V46.6344H28.2715ZM32.1834 40.677C32.5925 40.2396 32.7971 39.7497 32.7971 39.2074C32.7971 38.665 32.584 38.2276 32.1579 37.8952C31.7317 37.5452 31.1181 37.2478 30.317 37.0029V41.5431C31.1522 41.4031 31.7743 41.1144 32.1834 40.677ZM25.9193 31.1505C25.9193 31.9903 26.7034 32.6376 28.2715 33.0925V28.9985C27.5386 29.0685 26.959 29.3047 26.5329 29.7071C26.1238 30.092 25.9193 30.5731 25.9193 31.1505Z" fill="#FFEA7C"/>
</g>
<g style="mix-blend-mode:overlay" filter="url(#filter2_f_1_409)">
<circle cx="29.4329" cy="28.8377" r="11.3898" fill="white"/>
</g>
<defs>
<filter id="filter0_i_1_409" x="11.6362" y="17.4479" width="34.8813" height="35.5932" filterUnits="userSpaceOnUse" color-interpolation-filters="sRGB">
<feFlood flood-opacity="0" result="BackgroundImageFix"/>
<feBlend mode="normal" in="SourceGraphic" in2="BackgroundImageFix" result="shape"/>
<feColorMatrix in="SourceAlpha" type="matrix" values="0 0 0 0 0 0 0 0 0 0 0 0 0 0 0 0 0 0 127 0" result="hardAlpha"/>
<feMorphology radius="0.711864" operator="erode" in="SourceAlpha" result="effect1_innerShadow_1_409"/>
<feOffset dy="0.711864"/>
<feComposite in2="hardAlpha" operator="arithmetic" k2="-1" k3="1"/>
<feColorMatrix type="matrix" values="0 0 0 0 0 0 0 0 0 0 0 0 0 0 0 0 0 0 0.25 0"/>
<feBlend mode="normal" in2="shape" result="effect1_innerShadow_1_409"/>
</filter>
<filter id="filter1_d_1_409" x="22.3142" y="23.8547" width="13.5255" height="23.4915" filterUnits="userSpaceOnUse" color-interpolation-filters="sRGB">
<feFlood flood-opacity="0" result="BackgroundImageFix"/>
<feColorMatrix in="SourceAlpha" type="matrix" values="0 0 0 0 0 0 0 0 0 0 0 0 0 0 0 0 0 0 127 0" result="hardAlpha"/>
<feOffset dy="0.711864"/>
<feComposite in2="hardAlpha" operator="out"/>
<feColorMatrix type="matrix" values="0 0 0 0 0 0 0 0 0 0 0 0 0 0 0 0 0 0 0.25 0"/>
<feBlend mode="normal" in2="BackgroundImageFix" result="effect1_dropShadow_1_409"/>
<feBlend mode="normal" in="SourceGraphic" in2="effect1_dropShadow_1_409" result="shape"/>
</filter>
<filter id="filter2_f_1_409" x="0.958284" y="0.363161" width="56.9492" height="56.9492" filterUnits="userSpaceOnUse" color-interpolation-filters="sRGB">
<feFlood flood-opacity="0" result="BackgroundImageFix"/>
<feBlend mode="normal" in="SourceGraphic" in2="BackgroundImageFix" result="shape"/>
<feGaussianBlur stdDeviation="8.54237" result="effect1_foregroundBlur_1_409"/>
</filter>
</defs>
</svg>
