<svg width="22" height="29" viewBox="0 0 22 29" fill="none" xmlns="http://www.w3.org/2000/svg">
<path d="M20.5553 12.2478L15.5426 10.8312C15.1334 10.7155 14.9013 10.2853 15.031 9.88267L17.4213 2.46233C17.7807 1.99396 17.7694 1.32245 17.3613 0.862988C16.8974 0.341146 16.0971 0.290731 15.5735 0.750918L0.644653 13.8806C0.121254 14.341 0.0730359 15.1375 0.536883 15.6598C0.701412 15.8455 0.917267 15.9789 1.15735 16.0432C1.20107 16.0549 1.24543 16.0633 1.28997 16.0703C1.33227 16.0866 1.37559 16.1012 1.4204 16.1132L5.17453 17.1191C5.63042 17.2413 5.86253 17.7465 5.65663 18.1684L1.81967 26.0328C1.39784 26.4745 1.34959 27.1683 1.73571 27.6678C1.90515 27.8876 2.14272 28.0458 2.41144 28.1176C2.77927 28.2162 3.1871 28.1493 3.51187 27.9008L20.9165 14.5882C21.0769 14.4656 21.2051 14.3061 21.2903 14.1234C21.3503 14.0264 21.3989 13.9201 21.4314 13.8049C21.6209 13.1353 21.2286 12.4381 20.5553 12.2478Z" fill="url(#paint0_linear_1_430)"/>
<defs>
<linearGradient id="paint0_linear_1_430" x1="14.659" y1="-0.0780556" x2="14.659" y2="21.372" gradientUnits="userSpaceOnUse">
<stop stop-color="#F7C243"/>
<stop offset="1" stop-color="#FD902B"/>
</linearGradient>
</defs>
</svg>
