<svg width="25" height="25" viewBox="0 0 25 25" fill="none" xmlns="http://www.w3.org/2000/svg">
<path fill-rule="evenodd" clip-rule="evenodd" d="M24.7034 12.5407C24.7108 12.5351 24.7181 12.5295 24.7253 12.5237C24.7253 12.517 24.7253 12.5102 24.7255 12.5036C24.7228 12.5018 24.7201 12.5001 24.7173 12.4984C24.7116 12.4949 24.7058 12.4914 24.7012 12.4867C24.2655 12.0509 23.8299 11.615 23.3943 11.1791C22.9602 10.7447 22.5261 10.3103 22.092 9.876C22.075 9.85903 22.0564 9.84363 22.0442 9.83345C22.0401 9.83004 22.0367 9.82722 22.0343 9.82512L19.346 12.5132L22.0332 15.2004C22.039 15.1948 22.0454 15.1887 22.0522 15.1821C22.0701 15.165 22.0908 15.1451 22.1112 15.1248C22.3529 14.8831 22.5947 14.6413 22.8365 14.3995C23.4435 13.7926 24.0505 13.1857 24.6576 12.579C24.6716 12.565 24.6875 12.5529 24.7034 12.5407ZM5.33267 7.86544L8.03043 10.5629L12.6982 5.89536L17.3711 10.5682C17.5036 10.4657 20.031 7.92664 20.0612 7.87232L12.6882 0.5C12.5812 0.5816 5.36307 7.81112 5.33267 7.86544ZM12.6938 19.1178L8.02075 14.4449C7.11475 15.3482 6.21595 16.2443 5.32875 17.1291L12.6996 24.5L20.0692 17.1307L17.3775 14.4424L16.8508 14.9689L16.3329 15.4868L15.815 16.0047L15.2971 16.5226L14.772 17.0476L14.2541 17.5655L13.7362 18.0834C13.6844 18.1353 13.6326 18.1872 13.5808 18.2391C13.4602 18.36 13.3395 18.481 13.218 18.6011C13.1633 18.6553 13.1091 18.7101 13.0547 18.7651C12.9379 18.8834 12.8203 19.0025 12.6938 19.1178ZM9.97795 12.507L12.6992 15.2281L15.4178 12.5095L12.6967 9.7884L9.97795 12.507ZM3.37275 9.82673L0.697632 12.5018L3.37595 15.1801L6.05075 12.5047L3.37275 9.82673Z" fill="#F4B92E"/>
</svg>
