
<svg width="18" height="19" viewBox="0 0 18 19" fill="none" xmlns="http://www.w3.org/2000/svg">
<path fill-rule="evenodd" clip-rule="evenodd" d="M9.61386 11.297C9.51129 11.0168 9.24203 10.8163 8.92681 10.8163C8.61159 10.8163 8.3423 11.0168 8.23977 11.297L8.92681 11.7877L9.61386 11.297ZM8.92681 14.7837C8.7989 14.8984 8.65387 14.9925 8.49696 15.0625L8.62373 15.5697H9.22986L9.35666 15.0625C9.19975 14.9925 9.05472 14.8984 8.92681 14.7837ZM14.9942 4.35431C15.0213 4.32875 15.0483 4.30304 15.0748 4.2765C16.2172 3.13415 16.4486 1.51355 15.5919 0.656813C14.7352 -0.199925 13.1146 0.0315632 11.9722 1.17391C11.9433 1.20283 11.9152 1.23219 11.8875 1.2617C13.2335 1.91974 14.3302 3.01163 14.9942 4.35431ZM5.9662 1.2617C5.9384 1.232 5.91014 1.20273 5.88144 1.17391C4.73907 0.0315266 3.1185 -0.199962 2.26172 0.656776C1.40499 1.51351 1.63647 3.13412 2.77882 4.27646C2.80536 4.30301 2.83235 4.32871 2.85937 4.35427C3.52341 3.01163 4.62009 1.91974 5.9662 1.2617ZM2.63706 16.8292C2.72851 16.9022 2.82157 16.9732 2.91615 17.0421C4.52849 18.2147 6.66312 18.8605 8.92682 18.8605C11.1905 18.8605 13.3251 18.2147 14.9375 17.0421C15.0321 16.9732 15.1251 16.9022 15.2166 16.8292C14.5228 14.4779 12.6572 12.6607 10.3376 12.128L9.47528 12.744V13.5586C9.47528 13.8611 9.72132 14.1071 10.0237 14.1071C10.3262 14.1071 10.5722 13.8611 10.5722 13.5586C10.5722 13.2557 10.8178 13.0102 11.1207 13.0102C11.4236 13.0102 11.6691 13.2557 11.6691 13.5586C11.6691 14.3122 11.1597 14.9487 10.4673 15.1428L10.1902 16.2512C10.1605 16.3699 10.092 16.4752 9.99562 16.5505C9.89921 16.6257 9.78041 16.6666 9.6581 16.6666H8.19553C8.07321 16.6666 7.95441 16.6257 7.858 16.5504C7.76159 16.4752 7.69311 16.3698 7.66345 16.2512L7.38636 15.1428C6.69391 14.9487 6.18449 14.3122 6.18449 13.5586C6.18449 13.2557 6.43006 13.0102 6.73296 13.0102C7.03586 13.0102 7.28142 13.2557 7.28142 13.5586C7.28142 13.8611 7.52746 14.1071 7.82989 14.1071C8.13231 14.1071 8.37835 13.8611 8.37835 13.5586V12.744L7.51606 12.1281C5.19642 12.6607 3.33087 14.4779 2.63706 16.8292ZM7.15852 11.0833C5.77947 11.4198 4.51438 12.1496 3.48911 13.2195C2.71885 14.0234 2.13316 14.968 1.75406 15.9974C0.830229 14.9608 0.334198 13.7428 0.334198 12.4617C0.334198 10.5998 1.39584 8.85888 3.25934 7.64502V7.34271C3.25934 4.21766 5.80177 1.67524 8.92681 1.67524C12.0519 1.67524 14.5943 4.21766 14.5943 7.34271V7.64502C16.4578 8.85888 17.5194 10.5998 17.5194 12.4617C17.5194 13.7428 17.0234 14.9608 16.0995 15.9974C15.7204 14.968 15.1347 14.0234 14.3645 13.2195C13.3392 12.1496 12.0742 11.4198 10.6951 11.0833C10.4891 10.2994 9.77452 9.71939 8.92681 9.71939C8.0791 9.71939 7.36453 10.2994 7.15852 11.0833ZM11.4863 6.79424C11.1834 6.79424 10.9378 7.03981 10.9378 7.34271V8.43964C10.9378 8.74253 11.1834 8.9881 11.4863 8.9881C11.7892 8.9881 12.0348 8.74253 12.0348 8.43964V7.34271C12.0348 7.03981 11.7892 6.79424 11.4863 6.79424ZM6.36731 6.79424C6.06441 6.79424 5.81885 7.03981 5.81885 7.34271V8.43964C5.81885 8.74253 6.06441 8.9881 6.36731 8.9881C6.67021 8.9881 6.91577 8.74253 6.91577 8.43964V7.34271C6.91577 7.03981 6.67021 6.79424 6.36731 6.79424Z" fill="white"/>
</svg>
